<mxfile host="app.diagrams.net" modified="2023-09-11T22:19:28.857Z" agent="Mozilla/5.0 (X11; Linux x86_64) AppleWebKit/537.36 (KHTML, like Gecko) Chrome/117.0.0.0 Safari/537.36" etag="vGe3A3id5H5IEEodkEig" version="21.7.4" type="device">
  <diagram name="Page-1" id="Ui4uiA6tWoEcq1-r_Q9X">
    <mxGraphModel dx="1050" dy="705" grid="1" gridSize="10" guides="1" tooltips="1" connect="1" arrows="1" fold="1" page="1" pageScale="1" pageWidth="850" pageHeight="1100" math="0" shadow="0">
      <root>
        <mxCell id="0" />
        <mxCell id="1" parent="0" />
        <mxCell id="CrccjO0ktVLa_zSk9cTT-1" value="&lt;font style=&quot;font-size: 16px;&quot;&gt;&lt;b&gt;A&lt;/b&gt;&lt;/font&gt;" style="rounded=1;whiteSpace=wrap;html=1;" vertex="1" parent="1">
          <mxGeometry x="390" y="40" width="100" height="50" as="geometry" />
        </mxCell>
        <mxCell id="CrccjO0ktVLa_zSk9cTT-2" value="&lt;font style=&quot;font-size: 16px;&quot;&gt;&lt;b&gt;B&lt;/b&gt;&lt;/font&gt;" style="rounded=1;whiteSpace=wrap;html=1;" vertex="1" parent="1">
          <mxGeometry x="320" y="120" width="100" height="50" as="geometry" />
        </mxCell>
        <mxCell id="CrccjO0ktVLa_zSk9cTT-3" value="&lt;font style=&quot;font-size: 16px;&quot;&gt;&lt;b&gt;C&lt;/b&gt;&lt;/font&gt;" style="rounded=1;whiteSpace=wrap;html=1;" vertex="1" parent="1">
          <mxGeometry x="460" y="120" width="100" height="50" as="geometry" />
        </mxCell>
        <mxCell id="CrccjO0ktVLa_zSk9cTT-4" value="&lt;font style=&quot;font-size: 16px;&quot;&gt;&lt;b&gt;E&lt;/b&gt;&lt;br&gt;baz -&amp;gt; quux&lt;br&gt;&lt;/font&gt;" style="rounded=1;whiteSpace=wrap;html=1;" vertex="1" parent="1">
          <mxGeometry x="380" y="200" width="100" height="50" as="geometry" />
        </mxCell>
        <mxCell id="CrccjO0ktVLa_zSk9cTT-5" value="&lt;font style=&quot;font-size: 16px;&quot;&gt;&lt;b&gt;D&lt;/b&gt;&lt;br&gt;foo -&amp;gt; bar&lt;br&gt;&lt;/font&gt;" style="rounded=1;whiteSpace=wrap;html=1;" vertex="1" parent="1">
          <mxGeometry x="260" y="200" width="100" height="50" as="geometry" />
        </mxCell>
        <mxCell id="CrccjO0ktVLa_zSk9cTT-6" value="&lt;font style=&quot;font-size: 16px;&quot;&gt;&lt;b&gt;F&lt;/b&gt;&lt;br&gt;abc -&amp;gt; def&lt;br&gt;&lt;/font&gt;" style="rounded=1;whiteSpace=wrap;html=1;" vertex="1" parent="1">
          <mxGeometry x="520" y="200" width="100" height="50" as="geometry" />
        </mxCell>
        <mxCell id="CrccjO0ktVLa_zSk9cTT-7" value="" style="endArrow=classic;html=1;rounded=0;exitX=0.25;exitY=1;exitDx=0;exitDy=0;entryX=0.5;entryY=0;entryDx=0;entryDy=0;" edge="1" parent="1" source="CrccjO0ktVLa_zSk9cTT-1" target="CrccjO0ktVLa_zSk9cTT-2">
          <mxGeometry width="50" height="50" relative="1" as="geometry">
            <mxPoint x="480" y="290" as="sourcePoint" />
            <mxPoint x="450" y="340" as="targetPoint" />
          </mxGeometry>
        </mxCell>
        <mxCell id="CrccjO0ktVLa_zSk9cTT-8" value="" style="endArrow=classic;html=1;rounded=0;exitX=0.25;exitY=1;exitDx=0;exitDy=0;entryX=0.5;entryY=0;entryDx=0;entryDy=0;" edge="1" parent="1" source="CrccjO0ktVLa_zSk9cTT-2" target="CrccjO0ktVLa_zSk9cTT-5">
          <mxGeometry width="50" height="50" relative="1" as="geometry">
            <mxPoint x="490" y="300" as="sourcePoint" />
            <mxPoint x="460" y="350" as="targetPoint" />
          </mxGeometry>
        </mxCell>
        <mxCell id="CrccjO0ktVLa_zSk9cTT-9" value="" style="endArrow=classic;html=1;rounded=0;exitX=0.75;exitY=1;exitDx=0;exitDy=0;entryX=0.5;entryY=0;entryDx=0;entryDy=0;" edge="1" parent="1" source="CrccjO0ktVLa_zSk9cTT-2" target="CrccjO0ktVLa_zSk9cTT-4">
          <mxGeometry width="50" height="50" relative="1" as="geometry">
            <mxPoint x="500" y="310" as="sourcePoint" />
            <mxPoint x="470" y="360" as="targetPoint" />
          </mxGeometry>
        </mxCell>
        <mxCell id="CrccjO0ktVLa_zSk9cTT-10" value="" style="endArrow=classic;html=1;rounded=0;exitX=0.75;exitY=1;exitDx=0;exitDy=0;entryX=0.5;entryY=0;entryDx=0;entryDy=0;" edge="1" parent="1" source="CrccjO0ktVLa_zSk9cTT-1" target="CrccjO0ktVLa_zSk9cTT-3">
          <mxGeometry width="50" height="50" relative="1" as="geometry">
            <mxPoint x="510" y="320" as="sourcePoint" />
            <mxPoint x="480" y="370" as="targetPoint" />
          </mxGeometry>
        </mxCell>
        <mxCell id="CrccjO0ktVLa_zSk9cTT-11" value="" style="endArrow=classic;html=1;rounded=0;exitX=0.75;exitY=1;exitDx=0;exitDy=0;entryX=0.5;entryY=0;entryDx=0;entryDy=0;" edge="1" parent="1" source="CrccjO0ktVLa_zSk9cTT-3" target="CrccjO0ktVLa_zSk9cTT-6">
          <mxGeometry width="50" height="50" relative="1" as="geometry">
            <mxPoint x="520" y="330" as="sourcePoint" />
            <mxPoint x="490" y="380" as="targetPoint" />
          </mxGeometry>
        </mxCell>
      </root>
    </mxGraphModel>
  </diagram>
</mxfile>
